<svg width="16" height="16" viewBox="0 0 16 16" fill="none" xmlns="http://www.w3.org/2000/svg">
<rect width="16" height="16" rx="4" fill="#3A9289"/>
<path d="M4 13C2.89543 13 2 12.1046 2 11V5C2 3.89543 2.89543 3 4 3H6.66216C7.71622 3 8.64414 3.20476 9.44595 3.61429C10.2477 4.01429 10.8739 4.58571 11.3243 5.32857C11.7748 6.07143 12 6.95714 12 7.98571C12 9.02381 11.7748 9.91905 11.3243 10.6714C10.8739 11.4143 10.2477 11.9905 9.44595 12.4C8.64414 12.8 7.71622 13 6.66216 13H4ZM5.18919 9.03359C5.18919 9.77246 5.78816 10.3714 6.52703 10.3714C6.97748 10.3714 7.36937 10.281 7.7027 10.1C8.04504 9.91905 8.31081 9.65238 8.5 9.3C8.68919 8.9381 8.78378 8.5 8.78378 7.98571C8.78378 7.48095 8.68919 7.05238 8.5 6.7C8.31081 6.34762 8.04504 6.08095 7.7027 5.9C7.36937 5.71905 6.97748 5.62857 6.52703 5.62857C5.78816 5.62857 5.18919 6.22754 5.18919 6.96641V9.03359Z" fill="#D3EDE9"/>
<circle cx="13" cy="12" r="1" fill="#D3EDE9"/>
<circle cx="13.5" cy="9.5" r="0.5" fill="#D3EDE9"/>
</svg>
